# xmcd
#
# Track frame offsets: 
#        150
#        19455
#        41976
#        64541
#        83845
#        106366
#
# Disc length: 1716 seconds
#
# Revision: 0
# Processed by: cddbd v1.5.2PL0 Copyright (c) Steve Scherf et al.
# Submitted via: ExactAudioCopyFreeDBPlugin 1.0
#
DISCID=4b06b206
DTITLE=ミヤギマモル＆津波信一 - UNIONですから！
DYEAR=2006
DGENRE=Pop
TTITLE0=UNIONですから！
TTITLE1=ミヤギマモル - 泡盛心中
TTITLE2=ミヤギマモル - がんばれ！
TTITLE3=UNIONですから！カラオケ
TTITLE4=ミヤギマモル - 泡盛心中カラオケ
TTITLE5=ミヤギマモル - がんばれ！カラオケ
EXTD=
EXTT0=
EXTT1=
EXTT2=
EXTT3=
EXTT4=
EXTT5=
PLAYORDER=
